<svg width="22" height="26" viewBox="0 0 22 26" fill="none" xmlns="http://www.w3.org/2000/svg">
<path d="M12.5278 18.8056H6.30556V16.5833H12.5278V18.8056ZM15.1944 14.3611H6.30556V12.1389H15.1944V14.3611ZM15.1944 9.91667H6.30556V7.69444H15.1944V9.91667ZM16.9722 3.25H4.52778C3.54111 3.25 2.75 4.23889 2.75 5.47222V21.0278C2.75 21.6171 2.9373 22.1824 3.2707 22.5991C3.6041 23.0159 4.05628 23.25 4.52778 23.25H16.9722C17.4437 23.25 17.8959 23.0159 18.2293 22.5991C18.5627 22.1824 18.75 21.6171 18.75 21.0278V5.47222C18.75 4.23889 17.95 3.25 16.9722 3.25Z" fill="#ADBFDF"/>
</svg>
