<svg width="21" height="17" viewBox="0 0 21 17" fill="none" xmlns="http://www.w3.org/2000/svg">
<path d="M1.78947 0C0.796316 0 0 0.796316 0 1.78947V12.5263C0 13.0009 0.188533 13.4561 0.524125 13.7917C0.859716 14.1273 1.31488 14.3158 1.78947 14.3158H11.7121C11.6584 14.0205 11.6316 13.7253 11.6316 13.4211C11.6316 11.9973 12.1972 10.6318 13.204 9.62501C14.2107 8.61823 15.5762 8.05263 17 8.05263C17.3042 8.05263 17.5995 8.07947 17.8947 8.13316V1.78947C17.8947 0.796316 17.0895 0 16.1053 0H1.78947ZM1.78947 1.78947L8.94737 6.26316L16.1053 1.78947V3.57895L8.94737 8.05263L1.78947 3.57895V1.78947ZM16.1053 9.8421V12.5263H13.4211V14.3158H16.1053V17H17.8947V14.3158H20.5789V12.5263H17.8947V9.8421H16.1053Z" fill="#3DACEB"/>
</svg>
