<svg width="23" height="23" viewBox="0 0 23 23" fill="none" xmlns="http://www.w3.org/2000/svg">
<path d="M23 1.128L21.872 0L12.6 9.272V4H11V12H19V10.4H13.728L23 1.128Z" fill="#ADBFDF"/>
<path d="M3.62 12.79C5.06 15.62 7.38 17.93 10.21 19.38L12.41 17.18C12.68 16.91 13.08 16.82 13.43 16.94C14.55 17.31 15.76 17.51 17 17.51C17.55 17.51 18 17.96 18 18.51V22C18 22.55 17.55 23 17 23C7.61 23 0 15.39 0 6C0 5.45 0.45 5 1 5H4.5C5.05 5 5.5 5.45 5.5 6C5.5 7.25 5.7 8.45 6.07 9.57C6.18 9.92 6.1 10.31 5.82 10.59L3.62 12.79Z" fill="#ADBFDF"/>
</svg>
