<svg width="18" height="18" viewBox="0 0 18 18" fill="none" xmlns="http://www.w3.org/2000/svg">
<path d="M8.991 0C4.023 0 0 4.032 0 9C0 13.968 4.023 18 8.991 18C13.968 18 18 13.968 18 9C18 4.032 13.968 0 8.991 0ZM5.85 5.4C6.597 5.4 7.2 6.003 7.2 6.75C7.2 7.497 6.597 8.1 5.85 8.1C5.103 8.1 4.5 7.497 4.5 6.75C4.5 6.003 5.103 5.4 5.85 5.4ZM9 14.4C6.948 14.4 5.202 12.906 4.5 10.8H13.5C12.798 12.906 11.052 14.4 9 14.4ZM12.15 8.1C11.403 8.1 10.8 7.497 10.8 6.75C10.8 6.003 11.403 5.4 12.15 5.4C12.897 5.4 13.5 6.003 13.5 6.75C13.5 7.497 12.897 8.1 12.15 8.1Z" fill="#ADBFDF"/>
</svg>
