<svg width="16" height="16" viewBox="0 0 16 16" fill="none" xmlns="http://www.w3.org/2000/svg">
<path d="M6.49903 13.0389C7.04092 12.4786 7.04092 11.7791 6.49903 11.2223C6.0865 10.7976 5.67397 10.3729 5.25444 9.95535C5.13907 9.84115 5.1146 9.74479 5.19151 9.6056C5.33834 9.3308 5.45721 9.03815 5.61803 8.77405C6.37667 7.54278 7.35207 6.51137 8.44983 5.59774C8.99522 5.14449 9.57906 4.74121 10.2363 4.45926C10.3692 4.40216 10.4566 4.41287 10.5649 4.5235C10.967 4.9482 11.3795 5.36219 11.7921 5.77975C12.3654 6.36148 13.0367 6.36148 13.6135 5.77618C13.9421 5.44428 14.2638 5.11237 14.5924 4.78046C14.928 4.43785 15.2671 4.09881 15.5993 3.75262C16.1342 3.19231 16.1342 2.49281 15.5958 1.93606C15.1832 1.50779 14.7602 1.09737 14.3547 0.661967C13.9806 0.258682 13.5226 0.0552557 12.9877 0.012429C12.1172 -0.05538 11.2956 0.162322 10.495 0.469247C8.83789 1.09737 7.36606 2.05383 6.01658 3.21372C4.19164 4.78046 2.74777 6.65056 1.70594 8.83829C1.23747 9.8233 0.877378 10.844 0.817945 11.9539C0.775993 12.7177 0.964779 13.3815 1.54862 13.9132C1.94717 14.2773 2.31076 14.6877 2.69183 15.0731C3.25819 15.6442 3.94342 15.6477 4.50279 15.0803C5.17053 14.4022 5.83478 13.7205 6.49903 13.0389Z" fill="white"/>
</svg>
