<svg width="49" height="48" viewBox="0 0 49 48" fill="none" xmlns="http://www.w3.org/2000/svg">
<path d="M44.7226 30.9302C45.2079 28.8261 45.0466 26.5754 44.1119 24.3353C43.2079 22.1686 41.6492 20.4552 39.7504 19.3045C40.1744 17.7152 40.0624 16.0044 39.3184 14.3044C38.1971 11.7443 35.7717 10.0363 33.0356 9.55493C33.3676 8.79224 33.4743 7.83622 33.0836 6.66552C31.7502 2.66541 26.4167 5.33215 22.4166 0C19.1632 1.95205 18.4565 4.85347 18.5792 7.3162C15.3511 7.86555 13.5124 8.56424 13.5124 8.56424V8.56691C11.699 9.30026 10.4163 11.0776 10.4163 13.1564C10.4163 14.3284 10.8403 15.3911 11.5203 16.2391L10.5976 16.5831L10.599 16.5871C7.49221 17.7485 5.29881 20.5552 5.29881 23.8393C5.29881 25.2354 5.69882 26.5421 6.39218 27.6768C2.62807 29.3688 0 33.0409 0 37.333C0 43.2239 4.92147 48 10.9923 48C15.3511 48 19.7379 47.0626 23.7007 45.7799C26.6914 47.1666 31.2942 48 38.2237 48C43.6239 48 48.0013 43.6225 48.0013 38.2224C48.0013 35.321 46.7306 32.7222 44.7226 30.9302Z" fill="#BF6952"/>
</svg>
