<svg width="18" height="17" viewBox="0 0 18 17" fill="none" xmlns="http://www.w3.org/2000/svg">
<g clip-path="url(#clip0)">
<path d="M18 11.25L18 2.25C18 1.62872 17.4963 1.125 16.875 1.125L13.5 1.125L13.5 12.375L16.875 12.375C17.4963 12.375 18 11.8713 18 11.25Z" fill="#ADBFDF"/>
<path d="M2.07751 11.1251L5.40087 11.1251C5.69146 11.1251 5.83703 11.319 5.88592 11.4025C5.93481 11.4854 6.03369 11.7068 5.89306 11.9606L4.72137 14.0705C4.46429 14.5325 4.43793 15.0758 4.64831 15.5608C4.8587 16.0464 5.27399 16.3985 5.7876 16.5265L6.61377 16.7331C6.81482 16.7836 7.02796 16.7193 7.16803 16.5639L11.6537 11.5805C12.119 11.0625 12.375 10.3945 12.375 9.69906L12.375 3.81259C12.375 2.26187 11.1132 1.00009 9.5625 1.00009L3.96662 1.00064C2.70318 1.00064 1.58752 1.85153 1.25409 3.06937L0.0532911 8.58011C0.0181348 8.73337 7.36282e-06 8.89047 7.34909e-06 9.04758C7.24896e-06 10.1929 0.932197 11.1251 2.07752 11.1251L2.07751 11.1251Z" fill="#ADBFDF"/>
</g>
<defs>
<clipPath id="clip0">
<rect width="18" height="17" fill="white" transform="translate(18 17) rotate(-180)"/>
</clipPath>
</defs>
</svg>
