<svg width="6" height="24" viewBox="0 0 6 24" fill="none" xmlns="http://www.w3.org/2000/svg">
<path d="M2.87087 9.13043C1.28609 9.13043 2.48785e-07 10.4152 2.48785e-07 12C2.48785e-07 13.5848 1.28609 14.8696 2.87087 14.8696C4.45565 14.8696 5.73913 13.5848 5.73913 12C5.73913 10.4152 4.45565 9.13043 2.87087 9.13043ZM2.87087 5.73913C4.45565 5.73913 5.73913 4.45304 5.73913 2.86957C5.73913 1.28609 4.45565 1.5549e-08 2.87087 1.5549e-08C1.28609 1.5549e-08 2.48785e-07 1.28478 2.48785e-07 2.86957C2.48785e-07 4.45435 1.28609 5.73913 2.87087 5.73913ZM2.87087 18.2609C1.28609 18.2609 2.48785e-07 19.5457 2.48785e-07 21.1304C2.48785e-07 22.7152 1.28609 24 2.87087 24C4.45565 24 5.73913 22.7152 5.73913 21.1304C5.73913 19.5457 4.45565 18.2609 2.87087 18.2609Z" fill="#0091EA"/>
</svg>
