<svg width="13" height="16" viewBox="0 0 13 16" fill="none" xmlns="http://www.w3.org/2000/svg">
<path d="M10.9225 5.74992H7.59913C7.30854 5.74992 7.16297 5.55601 7.11408 5.47252C7.06519 5.38957 6.96631 5.1682 7.10694 4.91441L8.27863 2.80448C8.53571 2.34251 8.56207 1.79924 8.35169 1.31419C8.1413 0.828591 7.72601 0.476479 7.2124 0.348489L6.38623 0.141945C6.18518 0.0914082 5.97204 0.155678 5.83197 0.311135L1.34625 5.29454C0.880981 5.81254 0.625 6.48051 0.625 7.17594V13.0624C0.625 14.6131 1.88678 15.8749 3.4375 15.8749L9.03339 15.8744C10.2968 15.8744 11.4125 15.0235 11.7459 13.8056L12.9467 8.29489C12.9819 8.14163 13 7.98453 13 7.82742C13 6.68209 12.0678 5.74991 10.9225 5.74991L10.9225 5.74992Z" fill="#ADBFDF"/>
</svg>
