<svg version="1.1" id="Слой_1" xmlns="http://www.w3.org/2000/svg" xmlns:xlink="http://www.w3.org/1999/xlink" x="0px" y="0px"
	 width="28" height="28" viewBox="0 0 28 28" style="enable-background:new 0 0 28 28;" xml:space="preserve">
<style type="text/css">
	.st0{fill:#EB5757;fill-opacity:0.8;}
</style>
<g>
	<path class="st0" d="M28,1.3l-1.1-1.1l-9.3,9.3V4.1H16v8h8v-1.6h-5.3L28,1.3z"/>
</g>
<g>
	<path class="st0" d="M3.8,17.8c1.4,2.8,3.8,5.1,6.6,6.6l2.2-2.2c0.3-0.3,0.7-0.4,1-0.2c1.1,0.4,2.3,0.6,3.6,0.6c0.5,0,1,0.4,1,1V27
		c0,0.5-0.5,1-1,1c-9.4,0-17-7.6-17-17c0-0.6,0.4-1,1-1h3.5c0.6,0,1,0.4,1,1c0,1.3,0.2,2.4,0.6,3.6c0.1,0.4,0,0.7-0.3,1L3.8,17.8z"
		/>
</g>
</svg>
