<svg width="18" height="18" viewBox="0 0 18 18" fill="none" xmlns="http://www.w3.org/2000/svg">
<path d="M7.479 8.037C8.397 9.513 8.262 11.25 7.164 11.952C6.066 12.636 4.428 11.997 3.501 10.521C2.583 9.045 2.727 7.29 3.825 6.606C4.923 5.922 6.561 6.561 7.479 8.037ZM9 14.175C10.8 14.175 11.25 13.5 11.25 13.5C11.25 13.5 10.8 15.3 9 15.3C7.2 15.3 6.75 13.527 6.75 13.5C6.75 13.5 7.2 14.175 9 14.175ZM14.175 6.606C15.273 7.29 15.417 9.045 14.499 10.521C13.572 11.997 11.934 12.636 10.836 11.952C9.738 11.25 9.603 9.513 10.521 8.037C11.439 6.561 13.077 5.922 14.175 6.606ZM9 16.2C11.25 16.2 16.2 11.574 16.2 8.1C16.2 4.626 12.969 1.8 9 1.8C5.031 1.8 1.8 4.626 1.8 8.1C1.8 11.574 6.75 16.2 9 16.2ZM9 0C13.95 0 18 3.636 18 8.1C18 11.772 12.888 18 9 18C5.112 18 0 11.772 0 8.1C0 3.636 4.05 0 9 0Z" fill="white" fill-opacity="0.32"/>
</svg>
