<svg width="16" height="12" viewBox="0 0 16 12" fill="none" xmlns="http://www.w3.org/2000/svg">
<path d="M4.33153 1.66597L7.99667 5.33111L12.6614 0.666389L11.995 0L7.99667 3.99833L4.99792 0.999583H7.33028V0H3.33194V3.99833H4.33153V1.66597ZM15.8001 9.10954C13.7676 7.18367 11.0221 5.9975 7.99667 5.9975C4.97126 5.9975 2.22574 7.18367 0.193253 9.10954C0.0733028 9.22949 0 9.39608 0 9.58267C0 9.76926 0.0733028 9.93586 0.193253 10.0558L1.8459 11.7085C1.96585 11.8284 2.13244 11.9017 2.31903 11.9017C2.49896 11.9017 2.66556 11.8284 2.78551 11.7151C3.31195 11.222 3.9117 10.8088 4.5581 10.4823C4.77801 10.3757 4.93128 10.1491 4.93128 9.88255V7.81674C5.89754 7.49688 6.93045 7.33028 7.99667 7.33028C9.06289 7.33028 10.0958 7.49688 11.0621 7.81008V9.87589C11.0621 10.1358 11.2153 10.369 11.4352 10.4756C12.0883 10.8022 12.6814 11.222 13.2145 11.7085C13.3344 11.8284 13.501 11.895 13.681 11.895C13.8676 11.895 14.0342 11.8217 14.1541 11.7018L15.8067 10.0491C15.9267 9.9292 16 9.7626 16 9.57601C16 9.38942 15.92 9.22949 15.8001 9.10954Z" fill="#EB5757"/>
</svg>
