<svg width="22" height="24" viewBox="0 0 22 24" fill="none" xmlns="http://www.w3.org/2000/svg">
<path d="M4.8 16.8H13.2V19.2H4.8V16.8ZM4.8 12H16.8V14.4H4.8V12ZM4.8 7.2H16.8V9.6H4.8V7.2ZM19.2 2.4H14.184C13.68 1.008 12.36 0 10.8 0C9.24 0 7.92 1.008 7.416 2.4H2.4C2.232 2.4 2.076 2.412 1.92 2.448C1.452 2.544 1.032 2.784 0.708 3.108C0.492 3.324 0.312 3.588 0.192 3.876C0.0720001 4.152 0 4.464 0 4.8V21.6C0 21.924 0.0720001 22.248 0.192 22.536C0.312 22.824 0.492 23.076 0.708 23.304C1.032 23.628 1.452 23.868 1.92 23.964C2.076 23.988 2.232 24 2.4 24H19.2C20.52 24 21.6 22.92 21.6 21.6V4.8C21.6 3.48 20.52 2.4 19.2 2.4ZM10.8 2.1C11.292 2.1 11.7 2.508 11.7 3C11.7 3.492 11.292 3.9 10.8 3.9C10.308 3.9 9.9 3.492 9.9 3C9.9 2.508 10.308 2.1 10.8 2.1ZM19.2 21.6H2.4V4.8H19.2V21.6Z" fill="#D4DFF3"/>
</svg>
