<svg width="16" height="16" viewBox="0 0 16 16" fill="none" xmlns="http://www.w3.org/2000/svg">
<path d="M7.40031 8.05336C5.84698 5.04669 7.06698 2.40003 7.75365 1.34003C4.18031 1.46669 1.32031 4.39336 1.32031 8.00003C1.32031 8.09336 1.33365 8.18669 1.33365 8.28003C1.74698 8.10003 2.19365 8.00003 2.66698 8.00003C3.77365 8.00003 4.78698 8.55336 5.40031 9.43336C6.51365 9.75336 7.33365 10.78 7.33365 12C7.33365 13.0134 6.75365 13.8867 5.92031 14.34C6.57365 14.5534 7.27365 14.6734 7.99365 14.6734C10.327 14.6734 12.3803 13.4734 13.5736 11.66C12.0003 11.8134 8.92031 11.0134 7.40031 8.05336Z" fill="#ADBFDF"/>
<path d="M4.66699 10.6667H4.54699C4.26699 9.89337 3.53366 9.33337 2.66699 9.33337C1.56033 9.33337 0.666992 10.2267 0.666992 11.3334C0.666992 12.44 1.56033 13.3334 2.66699 13.3334C3.08033 13.3334 4.32699 13.3334 4.66699 13.3334C5.40033 13.3334 6.00033 12.7334 6.00033 12C6.00033 11.2667 5.40033 10.6667 4.66699 10.6667Z" fill="#ADBFDF"/>
</svg>
