<svg width="25" height="24" viewBox="0 0 25 24" fill="none" xmlns="http://www.w3.org/2000/svg">
<path d="M10.9357 8.4H13.3438V6H10.9357V8.4ZM12.1397 21.6C6.83004 21.6 2.50764 17.292 2.50764 12C2.50764 6.708 6.83004 2.4 12.1397 2.4C17.4494 2.4 21.7719 6.708 21.7719 12C21.7719 17.292 17.4494 21.6 12.1397 21.6ZM12.1397 0C10.5586 0 8.99296 0.310389 7.53218 0.913446C6.07141 1.5165 4.74411 2.40042 3.62608 3.51472C1.36812 5.76516 0.0996094 8.8174 0.0996094 12C0.0996094 15.1826 1.36812 18.2348 3.62608 20.4853C4.74411 21.5996 6.07141 22.4835 7.53218 23.0866C8.99296 23.6896 10.5586 24 12.1397 24C15.333 24 18.3954 22.7357 20.6534 20.4853C22.9114 18.2348 24.1799 15.1826 24.1799 12C24.1799 10.4241 23.8685 8.86371 23.2634 7.4078C22.6583 5.95189 21.7714 4.62902 20.6534 3.51472C19.5354 2.40042 18.2081 1.5165 16.7473 0.913446C15.2865 0.310389 13.7209 0 12.1397 0ZM10.9357 18H13.3438V10.8H10.9357V18Z" fill="#D4DFF3"/>
</svg>
