<svg width="72" height="28" viewBox="0 0 72 28" fill="none" xmlns="http://www.w3.org/2000/svg">
<path fill-rule="evenodd" clip-rule="evenodd" d="M35.1947 7.47254V0L39.7212 3.72744L35.1947 7.47254ZM3.27196 26.3924C4.81469 27.4523 6.7304 27.9823 9.00212 27.9823C11.4603 27.9823 13.4777 27.3286 15.0374 26.0391C16.5802 24.7318 17.3431 22.9829 17.3431 20.7747C17.3431 20.1034 17.2583 19.4675 17.0888 18.8845C16.9192 18.3015 16.7327 17.8069 16.4954 17.4006C16.2581 16.9766 15.936 16.588 15.4952 16.1993C15.0544 15.8107 14.6645 15.5104 14.3254 15.2807C13.9863 15.0511 13.5117 14.8038 12.8844 14.5388C12.2571 14.2738 11.7655 14.0795 11.4095 13.9558C11.2719 13.9102 11.1137 13.8574 10.9338 13.7974L10.9321 13.7968C10.6245 13.6942 10.2539 13.5705 9.81587 13.4258C8.12055 12.8782 6.96774 12.3659 6.35743 11.9066C5.76407 11.4473 5.45891 10.8467 5.45891 10.087C5.45891 9.38042 5.71321 8.79745 6.25571 8.35582C6.79821 7.91418 7.54415 7.68452 8.47657 7.68452C10.477 7.68452 11.952 8.70913 12.8674 10.7583L16.6649 8.47948C15.8851 6.78358 14.7831 5.47633 13.376 4.52238C11.9689 3.58611 10.3414 3.10914 8.47657 3.10914C6.40829 3.10914 4.62821 3.7451 3.15328 5.03469C1.67836 6.32427 0.932423 8.0555 0.932423 10.2107C0.932423 11.306 1.11891 12.2599 1.47492 13.0902C1.84789 13.9028 2.39039 14.5918 3.10242 15.1217C3.81446 15.6694 4.52649 16.0933 5.23852 16.4113C5.95055 16.7293 6.81516 17.0473 7.8493 17.3653C9.6972 17.9129 10.9856 18.4252 11.7146 18.8845C12.4436 19.3438 12.7996 19.9974 12.7996 20.8454C12.7996 21.5697 12.5114 22.1703 11.9181 22.6473C11.3417 23.1242 10.4092 23.3716 9.13774 23.3716C6.52696 23.3716 4.76383 22.1526 3.86532 19.7148L0 22.0643C0.627266 23.9015 1.71227 25.3324 3.27196 26.3924ZM42.1794 27.4524V8.74452L46.672 6.78364V27.4524H42.1794ZM35.1947 27.4524V11.8007L39.6873 9.83978V27.4524H35.1947ZM49.1471 27.4524V5.70603L53.6397 3.74515V27.4524H49.1471ZM67.5074 11.8007H72V27.4524H67.5074V25.7035C66.3376 27.2404 64.6932 28 62.574 28C60.5566 28 58.8274 27.205 57.3864 25.5975C55.9454 23.9899 55.2333 22.029 55.2333 19.6972C55.2333 17.3653 55.9454 15.4044 57.3864 13.7969C58.8274 12.1893 60.5566 11.3943 62.574 11.3943C64.6932 11.3943 66.3376 12.154 67.5074 13.6909V11.8007ZM60.8109 22.665C61.5399 23.4423 62.4723 23.8309 63.5912 23.8309C64.7101 23.8309 65.6595 23.4423 66.3885 22.665C67.1344 21.8877 67.5074 20.8984 67.5074 19.6795C67.5074 18.4606 67.1344 17.4713 66.3885 16.694C65.6426 15.9167 64.7101 15.5281 63.5912 15.5281C62.4723 15.5281 61.5399 15.9167 60.8109 16.694C60.0819 17.4713 59.709 18.4606 59.709 19.6795C59.709 20.8984 60.0819 21.8877 60.8109 22.665ZM27.2437 19.3615L33.1434 11.8183H27.3454L23.3953 16.8177V3.74515L18.9028 5.58238V27.4524H23.3953V21.8524L27.7862 27.4524H33.6011L27.2437 19.3615Z" fill="#F1D900"/>
</svg>
