<svg width="18" height="18" viewBox="0 0 18 18" fill="none" xmlns="http://www.w3.org/2000/svg">
<path d="M9.9 11.7H13.5V9L18 13.05L13.5 17.1V14.4H9.9V11.7ZM16.2 0H1.8C1.32261 0 0.864773 0.189642 0.527208 0.527208C0.189642 0.864773 0 1.32261 0 1.8V12.6C0 13.0774 0.189642 13.5352 0.527208 13.8728C0.864773 14.2104 1.32261 14.4 1.8 14.4H8.415C8.20498 13.8232 8.09835 13.2139 8.1 12.6C8.10128 11.4405 8.47576 10.3121 9.16805 9.38195C9.86033 8.45176 10.8337 7.76911 11.944 7.43499C13.0544 7.10088 14.2428 7.13304 15.3334 7.52673C16.4241 7.92042 17.359 8.65472 18 9.621V1.8C18 1.32261 17.8104 0.864773 17.4728 0.527208C17.1352 0.189642 16.6774 0 16.2 0ZM16.2 3.6L9 8.1L1.8 3.6V1.8L9 6.3L16.2 1.8V3.6Z" fill="white" fill-opacity="0.6"/>
</svg>
