<svg width="16" height="18" viewBox="0 0 16 18" fill="none" xmlns="http://www.w3.org/2000/svg">
<path d="M14.2222 1.8H10.5067C10.1333 0.756 9.15556 0 8 0C6.84444 0 5.86667 0.756 5.49333 1.8H1.77778C0.8 1.8 0 2.61 0 3.6V16.2C0 17.19 0.8 18 1.77778 18H14.2222C15.2 18 16 17.19 16 16.2V3.6C16 2.61 15.2 1.8 14.2222 1.8ZM8 1.8C8.48889 1.8 8.88889 2.205 8.88889 2.7C8.88889 3.195 8.48889 3.6 8 3.6C7.51111 3.6 7.11111 3.195 7.11111 2.7C7.11111 2.205 7.51111 1.8 8 1.8ZM8 5.4C9.47556 5.4 10.6667 6.606 10.6667 8.1C10.6667 9.594 9.47556 10.8 8 10.8C6.52444 10.8 5.33333 9.594 5.33333 8.1C5.33333 6.606 6.52444 5.4 8 5.4ZM13.3333 16.2H2.66667V14.94C2.66667 13.14 6.22222 12.15 8 12.15C9.77778 12.15 13.3333 13.14 13.3333 14.94V16.2Z" fill="#ADBFDF"/>
</svg>
